M48
; DRILL file {KiCad (6.0.2)} date Tue Mar  1 14:50:46 2022
; FORMAT={-:-/ absolute / metric / decimal}
; #@! TF.CreationDate,2022-03-01T14:50:46-05:00
; #@! TF.GenerationSoftware,Kicad,Pcbnew,(6.0.2)
; #@! TF.FileFunction,Plated,1,2,PTH
FMAT,2
METRIC
; #@! TA.AperFunction,Plated,PTH,ViaDrill
T1C0.400
; #@! TA.AperFunction,Plated,PTH,ComponentDrill
T2C0.800
; #@! TA.AperFunction,Plated,PTH,ComponentDrill
T3C1.000
; #@! TA.AperFunction,Plated,PTH,ComponentDrill
T4C1.170
; #@! TA.AperFunction,Plated,PTH,ComponentDrill
T5C1.200
; #@! TA.AperFunction,Plated,PTH,ComponentDrill
T6C1.400
; #@! TA.AperFunction,Plated,PTH,ViaDrill
T7C3.300
%
G90
G05
T1
X306.832Y-44.196
X312.039Y-21.971
X312.928Y-32.512
X313.817Y-21.971
X314.087Y-31.694
X314.706Y-37.338
X314.96Y-41.275
X315.595Y-21.971
X317.5Y-32.893
X320.929Y-30.099
X321.31Y-46.482
X322.199Y-38.735
X322.199Y-40.767
X322.199Y-42.926
X322.453Y-35.814
X324.104Y-38.354
X324.231Y-40.386
X324.231Y-42.672
X325.12Y-46.482
X327.66Y-44.196
X332.232Y-22.225
X332.669Y-32.029
X334.01Y-22.225
X334.193Y-31.521
X334.955Y-37.236
X335.337Y-41.275
X335.788Y-22.225
X337.566Y-32.893
X341.376Y-30.099
X341.884Y-46.482
X342.011Y-38.481
X342.138Y-40.64
X342.138Y-43.053
X342.773Y-35.687
X344.17Y-38.354
X344.297Y-40.767
X344.297Y-43.307
X344.932Y-46.482
X347.599Y-44.323
X352.552Y-21.971
X353.314Y-32.369
X354.33Y-21.971
X354.33Y-31.48
X355.219Y-37.449
X355.346Y-41.275
X356.108Y-21.971
X361.315Y-29.845
X361.95Y-39.497
X361.95Y-41.148
X361.95Y-42.799
X362.204Y-46.482
X363.22Y-35.687
X364.49Y-38.354
X364.49Y-40.894
X364.49Y-43.053
X365.125Y-46.482
X367.665Y-44.196
X372.872Y-21.844
X373.38Y-32.165
X374.65Y-21.844
X374.65Y-31.149
X375.158Y-37.245
X375.615Y-41.529
X376.428Y-21.844
X378.206Y-32.766
X381.762Y-29.972
X382.397Y-39.37
X382.397Y-41.402
X382.397Y-43.561
X382.905Y-46.482
X383.159Y-35.814
X384.683Y-40.767
X384.683Y-43.434
X385.953Y-46.482
X387.985Y-44.196
X393.065Y-21.971
X393.573Y-32.356
X394.843Y-21.971
X394.843Y-31.34
X395.351Y-37.436
X395.808Y-41.021
X396.621Y-21.971
X398.399Y-32.893
X401.828Y-30.099
X402.717Y-38.227
X402.717Y-40.005
X402.717Y-41.91
X403.098Y-46.482
X403.352Y-35.687
X405.13Y-40.386
X405.13Y-42.672
X405.257Y-37.846
X405.892Y-45.974
X408.432Y-44.196
X414.02Y-21.971
X414.463Y-32.222
X415.733Y-31.46
X415.798Y-21.971
X416.738Y-40.792
X416.749Y-37.302
X417.576Y-21.971
X419.481Y-32.766
X422.91Y-29.845
X423.418Y-45.974
X423.545Y-39.116
X423.545Y-40.767
X423.545Y-42.291
X424.053Y-35.814
X425.45Y-45.466
X425.704Y-38.354
X425.704Y-40.64
X425.704Y-42.672
X429.26Y-44.196
X434.467Y-22.098
X434.721Y-32.356
X436.245Y-22.098
X436.245Y-31.34
X437.261Y-41.097
X437.515Y-37.436
X438.023Y-22.098
X439.801Y-32.766
X443.23Y-30.226
X443.23Y-46.228
X444.119Y-39.37
X444.119Y-41.148
X444.119Y-42.926
X444.754Y-35.941
X445.008Y-79.248
X445.262Y-103.632
X446.024Y-38.608
X446.024Y-40.64
X446.024Y-43.053
X446.278Y-46.228
X448.691Y-120.65
X449.326Y-44.45
X451.104Y-120.65
X451.104Y-123.19
X453.517Y-107.442
X453.517Y-109.093
X453.517Y-110.744
X454.787Y-22.225
X455.295Y-32.162
X456.057Y-118.745
X456.438Y-80.264
X456.565Y-22.225
X456.565Y-31.4
X457.581Y-37.242
X457.581Y-41.351
X458.343Y-22.225
X458.47Y-120.396
X459.105Y-116.967
X459.74Y-111.506
X460.248Y-32.893
X461.518Y-28.575
X461.772Y-106.68
X463.423Y-30.353
X463.423Y-113.919
X464.185Y-116.205
X464.566Y-37.592
X464.566Y-39.497
X464.693Y-43.815
X465.201Y-114.554
X465.582Y-35.687
X465.582Y-42.164
X466.344Y-116.332
X470.154Y-137.922
X472.186Y-145.034
X473.202Y-137.668
T2
X449.722Y-107.305
X449.722Y-109.845
X449.722Y-112.385
X449.722Y-114.925
X457.342Y-107.305
X457.342Y-109.845
X457.342Y-112.385
X457.342Y-114.925
T3
X442.468Y-148.585
X442.468Y-151.125
X442.468Y-153.665
X442.468Y-156.205
X442.468Y-158.745
X442.468Y-161.285
X442.468Y-163.825
X442.468Y-166.365
X442.468Y-168.905
X442.468Y-171.445
X448.782Y-123.2
X448.782Y-125.74
X448.782Y-128.28
X448.782Y-130.82
X448.782Y-133.36
X448.782Y-135.9
X448.782Y-138.44
X448.782Y-140.98
X448.782Y-143.52
X448.782Y-146.06
X448.782Y-148.6
X448.782Y-151.14
X448.782Y-153.68
X448.782Y-156.22
X448.782Y-158.76
X448.782Y-161.3
X448.782Y-163.84
X448.782Y-166.38
X448.782Y-168.92
X448.782Y-171.46
X448.782Y-174.0
X448.782Y-176.54
X448.782Y-179.08
X448.782Y-181.62
X464.022Y-123.2
X464.022Y-125.74
X464.022Y-128.28
X464.022Y-130.82
X464.022Y-133.36
X464.022Y-135.9
X464.022Y-138.44
X464.022Y-140.98
X464.022Y-143.52
X464.022Y-146.06
X464.022Y-148.6
X464.022Y-151.14
X464.022Y-153.68
X464.022Y-156.22
X464.022Y-158.76
X464.022Y-161.3
X464.022Y-163.84
X464.022Y-166.38
X464.022Y-168.92
X464.022Y-171.46
X464.022Y-174.0
X464.022Y-176.54
X464.022Y-179.08
X464.022Y-181.62
X470.662Y-47.36
X470.662Y-52.44
X470.662Y-57.52
X470.662Y-62.6
T4
X305.816Y-50.546
X322.834Y-50.8
X339.09Y-50.8
X355.854Y-50.8
X372.11Y-50.927
X388.366Y-50.927
X404.876Y-51.181
X421.132Y-53.086
T5
X450.892Y-57.531
X458.392Y-57.531
T6
X309.96Y-60.2
X309.96Y-76.645
X309.96Y-93.09
X309.96Y-109.535
X309.96Y-125.98
X309.96Y-142.425
X309.96Y-158.87
X309.96Y-175.315
X319.96Y-60.2
X319.96Y-76.645
X319.96Y-93.09
X319.96Y-109.535
X319.96Y-125.98
X319.96Y-142.425
X319.96Y-158.87
X319.96Y-175.315
X326.405Y-60.2
X326.405Y-76.645
X326.405Y-93.09
X326.405Y-109.535
X326.405Y-125.98
X326.405Y-142.425
X326.405Y-158.87
X326.405Y-175.315
X336.405Y-60.2
X336.405Y-76.645
X336.405Y-93.09
X336.405Y-109.535
X336.405Y-125.98
X336.405Y-142.425
X336.405Y-158.87
X336.405Y-175.315
X342.85Y-60.2
X342.85Y-76.645
X342.85Y-93.09
X342.85Y-109.535
X342.85Y-125.98
X342.85Y-142.425
X342.85Y-158.87
X342.85Y-175.315
X352.85Y-60.2
X352.85Y-76.645
X352.85Y-93.09
X352.85Y-109.535
X352.85Y-125.98
X352.85Y-142.425
X352.85Y-158.87
X352.85Y-175.315
X359.295Y-60.2
X359.295Y-76.645
X359.295Y-93.09
X359.295Y-109.535
X359.295Y-125.98
X359.295Y-142.425
X359.295Y-158.87
X359.295Y-175.315
X369.295Y-60.2
X369.295Y-76.645
X369.295Y-93.09
X369.295Y-109.535
X369.295Y-125.98
X369.295Y-142.425
X369.295Y-158.87
X369.295Y-175.315
X375.74Y-60.2
X375.74Y-76.645
X375.74Y-93.09
X375.74Y-109.535
X375.74Y-125.98
X375.74Y-142.425
X375.74Y-158.87
X375.74Y-175.315
X385.74Y-60.2
X385.74Y-76.645
X385.74Y-93.09
X385.74Y-109.535
X385.74Y-125.98
X385.74Y-142.425
X385.74Y-158.87
X385.74Y-175.315
X392.185Y-60.2
X392.185Y-76.645
X392.185Y-93.09
X392.185Y-109.535
X392.185Y-125.98
X392.185Y-142.425
X392.185Y-158.87
X392.185Y-175.315
X402.185Y-60.2
X402.185Y-76.645
X402.185Y-93.09
X402.185Y-109.535
X402.185Y-125.98
X402.185Y-142.425
X402.185Y-158.87
X402.185Y-175.315
X408.63Y-60.2
X408.63Y-76.645
X408.63Y-93.09
X408.63Y-109.535
X408.63Y-125.98
X408.63Y-142.425
X408.63Y-158.87
X408.63Y-175.315
X418.63Y-60.2
X418.63Y-76.645
X418.63Y-93.09
X418.63Y-109.535
X418.63Y-125.98
X418.63Y-142.425
X418.63Y-158.87
X418.63Y-175.315
X425.075Y-60.2
X425.075Y-76.645
X425.075Y-93.09
X425.075Y-109.535
X425.075Y-125.98
X425.075Y-142.425
X425.075Y-158.87
X425.075Y-175.315
X435.075Y-60.2
X435.075Y-76.645
X435.075Y-93.09
X435.075Y-109.535
X435.075Y-125.98
X435.075Y-142.425
X435.075Y-158.87
X435.075Y-175.315
T7
X305.435Y-23.495
X305.435Y-183.515
X471.17Y-23.495
X471.17Y-182.88
T0
M30
