%TF.GenerationSoftware,KiCad,Pcbnew,(6.0.2)*%
%TF.CreationDate,2022-03-01T14:49:17-05:00*%
%TF.ProjectId,SeniorDesign_FinalPCB_dal_power_complete,53656e69-6f72-4446-9573-69676e5f4669,rev?*%
%TF.SameCoordinates,Original*%
%TF.FileFunction,Soldermask,Top*%
%TF.FilePolarity,Negative*%
%FSLAX46Y46*%
G04 Gerber Fmt 4.6, Leading zero omitted, Abs format (unit mm)*
G04 Created by KiCad (PCBNEW (6.0.2)) date 2022-03-01 14:49:17*
%MOMM*%
%LPD*%
G01*
G04 APERTURE LIST*
G04 Aperture macros list*
%AMRoundRect*
0 Rectangle with rounded corners*
0 $1 Rounding radius*
0 $2 $3 $4 $5 $6 $7 $8 $9 X,Y pos of 4 corners*
0 Add a 4 corners polygon primitive as box body*
4,1,4,$2,$3,$4,$5,$6,$7,$8,$9,$2,$3,0*
0 Add four circle primitives for the rounded corners*
1,1,$1+$1,$2,$3*
1,1,$1+$1,$4,$5*
1,1,$1+$1,$6,$7*
1,1,$1+$1,$8,$9*
0 Add four rect primitives between the rounded corners*
20,1,$1+$1,$2,$3,$4,$5,0*
20,1,$1+$1,$4,$5,$6,$7,0*
20,1,$1+$1,$6,$7,$8,$9,0*
20,1,$1+$1,$8,$9,$2,$3,0*%
G04 Aperture macros list end*
%ADD10C,2.250000*%
%ADD11RoundRect,0.225000X0.250000X-0.225000X0.250000X0.225000X-0.250000X0.225000X-0.250000X-0.225000X0*%
%ADD12RoundRect,0.225000X-0.250000X0.225000X-0.250000X-0.225000X0.250000X-0.225000X0.250000X0.225000X0*%
%ADD13RoundRect,0.225000X0.225000X0.250000X-0.225000X0.250000X-0.225000X-0.250000X0.225000X-0.250000X0*%
%ADD14RoundRect,0.250000X-0.475000X0.250000X-0.475000X-0.250000X0.475000X-0.250000X0.475000X0.250000X0*%
%ADD15RoundRect,0.250000X0.325000X0.650000X-0.325000X0.650000X-0.325000X-0.650000X0.325000X-0.650000X0*%
%ADD16RoundRect,0.250000X-0.325000X-0.650000X0.325000X-0.650000X0.325000X0.650000X-0.325000X0.650000X0*%
%ADD17R,0.610000X1.270000*%
%ADD18R,0.610000X1.020000*%
%ADD19R,3.910000X3.810000*%
%ADD20RoundRect,0.200000X-0.200000X-0.275000X0.200000X-0.275000X0.200000X0.275000X-0.200000X0.275000X0*%
%ADD21RoundRect,0.042000X0.908000X0.258000X-0.908000X0.258000X-0.908000X-0.258000X0.908000X-0.258000X0*%
%ADD22RoundRect,0.200000X0.200000X0.275000X-0.200000X0.275000X-0.200000X-0.275000X0.200000X-0.275000X0*%
%ADD23R,2.400000X1.600000*%
%ADD24O,2.400000X1.600000*%
%ADD25RoundRect,0.150000X-0.825000X-0.150000X0.825000X-0.150000X0.825000X0.150000X-0.825000X0.150000X0*%
%ADD26RoundRect,0.225000X-0.225000X-0.250000X0.225000X-0.250000X0.225000X0.250000X-0.225000X0.250000X0*%
%ADD27C,1.755000*%
%ADD28R,1.700000X1.700000*%
%ADD29O,1.700000X1.700000*%
%ADD30R,1.300000X2.000000*%
%ADD31R,2.000000X2.000000*%
%ADD32R,1.200000X2.200000*%
%ADD33R,5.800000X6.400000*%
%ADD34R,2.400000X2.400000*%
%ADD35C,2.400000*%
%ADD36C,1.700000*%
%ADD37R,2.200000X2.800000*%
%ADD38R,2.800000X2.800000*%
%ADD39RoundRect,0.250000X1.750000X1.000000X-1.750000X1.000000X-1.750000X-1.000000X1.750000X-1.000000X0*%
G04 APERTURE END LIST*
D10*
%TO.C,U14*%
X326405000Y-142425000D03*
X336405000Y-142425000D03*
%TD*%
%TO.C,U15*%
X326405000Y-158870000D03*
X336405000Y-158870000D03*
%TD*%
%TO.C,U16*%
X326405000Y-175315000D03*
X336405000Y-175315000D03*
%TD*%
%TO.C,U17*%
X342850000Y-60200000D03*
X352850000Y-60200000D03*
%TD*%
%TO.C,U18*%
X342850000Y-76645000D03*
X352850000Y-76645000D03*
%TD*%
%TO.C,U19*%
X342850000Y-93090000D03*
X352850000Y-93090000D03*
%TD*%
%TO.C,U20*%
X342850000Y-109535000D03*
X352850000Y-109535000D03*
%TD*%
%TO.C,U21*%
X342850000Y-125980000D03*
X352850000Y-125980000D03*
%TD*%
%TO.C,U22*%
X342850000Y-142425000D03*
X352850000Y-142425000D03*
%TD*%
%TO.C,U23*%
X342850000Y-158870000D03*
X352850000Y-158870000D03*
%TD*%
%TO.C,U24*%
X342850000Y-175315000D03*
X352850000Y-175315000D03*
%TD*%
%TO.C,U25*%
X359295000Y-60200000D03*
X369295000Y-60200000D03*
%TD*%
%TO.C,U26*%
X359295000Y-76645000D03*
X369295000Y-76645000D03*
%TD*%
%TO.C,U27*%
X359295000Y-93090000D03*
X369295000Y-93090000D03*
%TD*%
%TO.C,U28*%
X359295000Y-109535000D03*
X369295000Y-109535000D03*
%TD*%
%TO.C,U29*%
X359295000Y-125980000D03*
X369295000Y-125980000D03*
%TD*%
%TO.C,U30*%
X359295000Y-142425000D03*
X369295000Y-142425000D03*
%TD*%
%TO.C,U31*%
X359295000Y-158870000D03*
X369295000Y-158870000D03*
%TD*%
%TO.C,U32*%
X359295000Y-175315000D03*
X369295000Y-175315000D03*
%TD*%
%TO.C,U33*%
X375740000Y-60200000D03*
X385740000Y-60200000D03*
%TD*%
%TO.C,U34*%
X375740000Y-76645000D03*
X385740000Y-76645000D03*
%TD*%
%TO.C,U35*%
X375740000Y-93090000D03*
X385740000Y-93090000D03*
%TD*%
%TO.C,U36*%
X375740000Y-109535000D03*
X385740000Y-109535000D03*
%TD*%
%TO.C,U37*%
X375740000Y-125980000D03*
X385740000Y-125980000D03*
%TD*%
%TO.C,U38*%
X375740000Y-142425000D03*
X385740000Y-142425000D03*
%TD*%
%TO.C,U39*%
X375740000Y-158870000D03*
X385740000Y-158870000D03*
%TD*%
%TO.C,U40*%
X375740000Y-175315000D03*
X385740000Y-175315000D03*
%TD*%
%TO.C,U41*%
X392185000Y-60200000D03*
X402185000Y-60200000D03*
%TD*%
%TO.C,U42*%
X392185000Y-76645000D03*
X402185000Y-76645000D03*
%TD*%
%TO.C,U43*%
X392185000Y-93090000D03*
X402185000Y-93090000D03*
%TD*%
%TO.C,U44*%
X392185000Y-109535000D03*
X402185000Y-109535000D03*
%TD*%
%TO.C,U45*%
X392185000Y-125980000D03*
X402185000Y-125980000D03*
%TD*%
%TO.C,U46*%
X392185000Y-142425000D03*
X402185000Y-142425000D03*
%TD*%
%TO.C,U47*%
X392185000Y-158870000D03*
X402185000Y-158870000D03*
%TD*%
%TO.C,U48*%
X392185000Y-175315000D03*
X402185000Y-175315000D03*
%TD*%
%TO.C,U49*%
X408630000Y-60200000D03*
X418630000Y-60200000D03*
%TD*%
%TO.C,U50*%
X408630000Y-76645000D03*
X418630000Y-76645000D03*
%TD*%
%TO.C,U51*%
X408630000Y-93090000D03*
X418630000Y-93090000D03*
%TD*%
%TO.C,U52*%
X408630000Y-109535000D03*
X418630000Y-109535000D03*
%TD*%
%TO.C,U53*%
X408630000Y-125980000D03*
X418630000Y-125980000D03*
%TD*%
%TO.C,U54*%
X408630000Y-142425000D03*
X418630000Y-142425000D03*
%TD*%
%TO.C,U55*%
X408630000Y-158870000D03*
X418630000Y-158870000D03*
%TD*%
%TO.C,U56*%
X408630000Y-175315000D03*
X418630000Y-175315000D03*
%TD*%
%TO.C,U57*%
X425075000Y-60200000D03*
X435075000Y-60200000D03*
%TD*%
%TO.C,U58*%
X425075000Y-76645000D03*
X435075000Y-76645000D03*
%TD*%
%TO.C,U59*%
X425075000Y-93090000D03*
X435075000Y-93090000D03*
%TD*%
%TO.C,U60*%
X425075000Y-109535000D03*
X435075000Y-109535000D03*
%TD*%
%TO.C,U61*%
X425075000Y-125980000D03*
X435075000Y-125980000D03*
%TD*%
%TO.C,U62*%
X425075000Y-142425000D03*
X435075000Y-142425000D03*
%TD*%
%TO.C,U63*%
X425075000Y-158870000D03*
X435075000Y-158870000D03*
%TD*%
%TO.C,U64*%
X425075000Y-175315000D03*
X435075000Y-175315000D03*
%TD*%
%TO.C,U1*%
X309960000Y-60200000D03*
X319960000Y-60200000D03*
%TD*%
%TO.C,U2*%
X309960000Y-76645000D03*
X319960000Y-76645000D03*
%TD*%
%TO.C,U3*%
X309960000Y-93090000D03*
X319960000Y-93090000D03*
%TD*%
%TO.C,U4*%
X309960000Y-109535000D03*
X319960000Y-109535000D03*
%TD*%
%TO.C,U5*%
X309960000Y-125980000D03*
X319960000Y-125980000D03*
%TD*%
%TO.C,U6*%
X309960000Y-142425000D03*
X319960000Y-142425000D03*
%TD*%
%TO.C,U7*%
X309960000Y-158870000D03*
X319960000Y-158870000D03*
%TD*%
%TO.C,U8*%
X309960000Y-175315000D03*
X319960000Y-175315000D03*
%TD*%
%TO.C,U9*%
X326405000Y-60200000D03*
X336405000Y-60200000D03*
%TD*%
%TO.C,U10*%
X326405000Y-76645000D03*
X336405000Y-76645000D03*
%TD*%
%TO.C,U11*%
X326405000Y-93090000D03*
X336405000Y-93090000D03*
%TD*%
%TO.C,U12*%
X326405000Y-109535000D03*
X336405000Y-109535000D03*
%TD*%
%TO.C,U13*%
X326405000Y-125980000D03*
X336405000Y-125980000D03*
%TD*%
D11*
%TO.C,C1*%
X315651500Y-25739000D03*
X315651500Y-24189000D03*
%TD*%
%TO.C,C2*%
X335844500Y-25765000D03*
X335844500Y-24215000D03*
%TD*%
%TO.C,C3*%
X356108000Y-25807000D03*
X356108000Y-24257000D03*
%TD*%
%TO.C,C4*%
X376428000Y-25765000D03*
X376428000Y-24215000D03*
%TD*%
D12*
%TO.C,C5*%
X469900000Y-40627000D03*
X469900000Y-42177000D03*
%TD*%
%TO.C,C6*%
X472186000Y-40627000D03*
X472186000Y-42177000D03*
%TD*%
%TO.C,C7*%
X313873500Y-24189000D03*
X313873500Y-25739000D03*
%TD*%
%TO.C,C8*%
X334066500Y-24215000D03*
X334066500Y-25765000D03*
%TD*%
%TO.C,C9*%
X354330000Y-24257000D03*
X354330000Y-25807000D03*
%TD*%
%TO.C,C10*%
X374650000Y-24215000D03*
X374650000Y-25765000D03*
%TD*%
%TO.C,C11*%
X312095500Y-24189000D03*
X312095500Y-25739000D03*
%TD*%
%TO.C,C12*%
X332288500Y-24215000D03*
X332288500Y-25765000D03*
%TD*%
%TO.C,C13*%
X352552000Y-24257000D03*
X352552000Y-25807000D03*
%TD*%
%TO.C,C14*%
X372872000Y-24215000D03*
X372872000Y-25765000D03*
%TD*%
D13*
%TO.C,C15*%
X320236500Y-37156000D03*
X318686500Y-37156000D03*
%TD*%
%TO.C,C16*%
X340429500Y-37182000D03*
X338879500Y-37182000D03*
%TD*%
%TO.C,C17*%
X360693000Y-37224000D03*
X359143000Y-37224000D03*
%TD*%
%TO.C,C18*%
X381013000Y-37182000D03*
X379463000Y-37182000D03*
%TD*%
D14*
%TO.C,C19*%
X307594000Y-31888000D03*
X307594000Y-33788000D03*
%TD*%
%TO.C,C20*%
X327660000Y-31914000D03*
X327660000Y-33814000D03*
%TD*%
%TO.C,C21*%
X347980000Y-31956000D03*
X347980000Y-33856000D03*
%TD*%
%TO.C,C22*%
X368300000Y-31914000D03*
X368300000Y-33814000D03*
%TD*%
D15*
%TO.C,C23*%
X308307000Y-40386000D03*
X305357000Y-40386000D03*
%TD*%
%TO.C,C24*%
X328627000Y-40640000D03*
X325677000Y-40640000D03*
%TD*%
%TO.C,C25*%
X348693000Y-40894000D03*
X345743000Y-40894000D03*
%TD*%
%TO.C,C26*%
X368759000Y-40894000D03*
X365809000Y-40894000D03*
%TD*%
D16*
%TO.C,C27*%
X305357000Y-37846000D03*
X308307000Y-37846000D03*
%TD*%
%TO.C,C28*%
X325677000Y-38100000D03*
X328627000Y-38100000D03*
%TD*%
%TO.C,C29*%
X345743000Y-38354000D03*
X348693000Y-38354000D03*
%TD*%
%TO.C,C30*%
X365809000Y-38354000D03*
X368759000Y-38354000D03*
%TD*%
%TO.C,C31*%
X305357000Y-42926000D03*
X308307000Y-42926000D03*
%TD*%
%TO.C,C32*%
X325677000Y-43180000D03*
X328627000Y-43180000D03*
%TD*%
%TO.C,C33*%
X345743000Y-43434000D03*
X348693000Y-43434000D03*
%TD*%
%TO.C,C34*%
X365809000Y-43434000D03*
X368759000Y-43434000D03*
%TD*%
D11*
%TO.C,C35*%
X396621000Y-25765000D03*
X396621000Y-24215000D03*
%TD*%
%TO.C,C36*%
X417576000Y-25696000D03*
X417576000Y-24146000D03*
%TD*%
%TO.C,C37*%
X438023000Y-25765000D03*
X438023000Y-24215000D03*
%TD*%
%TO.C,C38*%
X458343000Y-25826000D03*
X458343000Y-24276000D03*
%TD*%
D12*
%TO.C,C39*%
X394843000Y-24215000D03*
X394843000Y-25765000D03*
%TD*%
%TO.C,C40*%
X415798000Y-24146000D03*
X415798000Y-25696000D03*
%TD*%
%TO.C,C41*%
X436245000Y-24215000D03*
X436245000Y-25765000D03*
%TD*%
%TO.C,C42*%
X456565000Y-24276000D03*
X456565000Y-25826000D03*
%TD*%
%TO.C,C43*%
X393065000Y-24215000D03*
X393065000Y-25765000D03*
%TD*%
%TO.C,C44*%
X414020000Y-24146000D03*
X414020000Y-25696000D03*
%TD*%
%TO.C,C45*%
X434467000Y-24215000D03*
X434467000Y-25765000D03*
%TD*%
%TO.C,C46*%
X454787000Y-24276000D03*
X454787000Y-25826000D03*
%TD*%
D13*
%TO.C,C47*%
X401206000Y-37182000D03*
X399656000Y-37182000D03*
%TD*%
%TO.C,C48*%
X422161000Y-37113000D03*
X420611000Y-37113000D03*
%TD*%
%TO.C,C49*%
X442608000Y-37182000D03*
X441058000Y-37182000D03*
%TD*%
%TO.C,C50*%
X462928000Y-37243000D03*
X461378000Y-37243000D03*
%TD*%
D14*
%TO.C,C51*%
X388620000Y-31914000D03*
X388620000Y-33814000D03*
%TD*%
%TO.C,C52*%
X409702000Y-31845000D03*
X409702000Y-33745000D03*
%TD*%
%TO.C,C53*%
X430276000Y-31914000D03*
X430276000Y-33814000D03*
%TD*%
%TO.C,C54*%
X450469000Y-31975000D03*
X450469000Y-33875000D03*
%TD*%
D15*
%TO.C,C55*%
X389079000Y-40894000D03*
X386129000Y-40894000D03*
%TD*%
%TO.C,C56*%
X409907000Y-40640000D03*
X406957000Y-40640000D03*
%TD*%
%TO.C,C57*%
X430481000Y-40894000D03*
X427531000Y-40894000D03*
%TD*%
%TO.C,C58*%
X450801000Y-40894000D03*
X447851000Y-40894000D03*
%TD*%
D16*
%TO.C,C59*%
X386129000Y-38354000D03*
X389079000Y-38354000D03*
%TD*%
%TO.C,C60*%
X406957000Y-38100000D03*
X409907000Y-38100000D03*
%TD*%
%TO.C,C61*%
X427531000Y-38354000D03*
X430481000Y-38354000D03*
%TD*%
%TO.C,C62*%
X447851000Y-38354000D03*
X450801000Y-38354000D03*
%TD*%
%TO.C,C63*%
X386129000Y-43434000D03*
X389079000Y-43434000D03*
%TD*%
%TO.C,C64*%
X406957000Y-43180000D03*
X409907000Y-43180000D03*
%TD*%
%TO.C,C65*%
X427531000Y-43434000D03*
X430481000Y-43434000D03*
%TD*%
%TO.C,C66*%
X447851000Y-43434000D03*
X450801000Y-43434000D03*
%TD*%
D17*
%TO.C,Q1*%
X310007000Y-44580000D03*
X311277000Y-44580000D03*
X312547000Y-44580000D03*
X313817000Y-44580000D03*
D18*
X311277000Y-39115000D03*
X312547000Y-39115000D03*
X310007000Y-39115000D03*
D19*
X311912000Y-41220000D03*
D18*
X313817000Y-39115000D03*
%TD*%
D17*
%TO.C,Q2*%
X320167000Y-39240000D03*
X318897000Y-39240000D03*
X317627000Y-39240000D03*
X316357000Y-39240000D03*
D18*
X316357000Y-44705000D03*
X317627000Y-44705000D03*
X320167000Y-44705000D03*
X318897000Y-44705000D03*
D19*
X318262000Y-42600000D03*
%TD*%
D17*
%TO.C,Q3*%
X330383500Y-44606000D03*
X331653500Y-44606000D03*
X332923500Y-44606000D03*
X334193500Y-44606000D03*
D19*
X332288500Y-41246000D03*
D18*
X330383500Y-39141000D03*
X331653500Y-39141000D03*
X334193500Y-39141000D03*
X332923500Y-39141000D03*
%TD*%
D17*
%TO.C,Q4*%
X340543500Y-39235001D03*
X339273500Y-39235001D03*
X338003500Y-39235001D03*
X336733500Y-39235001D03*
D19*
X338638500Y-42595001D03*
D18*
X340543500Y-44700001D03*
X338003500Y-44700001D03*
X336733500Y-44700001D03*
X339273500Y-44700001D03*
%TD*%
D17*
%TO.C,Q5*%
X350393000Y-44720000D03*
X351663000Y-44720000D03*
X352933000Y-44720000D03*
X354203000Y-44720000D03*
D18*
X350393000Y-39255000D03*
X352933000Y-39255000D03*
D19*
X352298000Y-41360000D03*
D18*
X351663000Y-39255000D03*
X354203000Y-39255000D03*
%TD*%
D17*
%TO.C,Q6*%
X360553000Y-39380000D03*
X359283000Y-39380000D03*
X358013000Y-39380000D03*
X356743000Y-39380000D03*
D18*
X358013000Y-44845000D03*
X359283000Y-44845000D03*
D19*
X358648000Y-42740000D03*
D18*
X360553000Y-44845000D03*
X356743000Y-44845000D03*
%TD*%
D17*
%TO.C,Q7*%
X370713000Y-44678000D03*
X371983000Y-44678000D03*
X373253000Y-44678000D03*
X374523000Y-44678000D03*
D18*
X371983000Y-39213000D03*
X373253000Y-39213000D03*
X374523000Y-39213000D03*
X370713000Y-39213000D03*
D19*
X372618000Y-41318000D03*
%TD*%
D17*
%TO.C,Q8*%
X380873000Y-39338000D03*
X379603000Y-39338000D03*
X378333000Y-39338000D03*
X377063000Y-39338000D03*
D19*
X378968000Y-42698000D03*
D18*
X378333000Y-44803000D03*
X379603000Y-44803000D03*
X377063000Y-44803000D03*
X380873000Y-44803000D03*
%TD*%
D17*
%TO.C,Q9*%
X390906000Y-44678000D03*
X392176000Y-44678000D03*
X393446000Y-44678000D03*
X394716000Y-44678000D03*
D18*
X393446000Y-39213000D03*
D19*
X392811000Y-41318000D03*
D18*
X390906000Y-39213000D03*
X394716000Y-39213000D03*
X392176000Y-39213000D03*
%TD*%
D17*
%TO.C,Q10*%
X401066000Y-39338000D03*
X399796000Y-39338000D03*
X398526000Y-39338000D03*
X397256000Y-39338000D03*
D18*
X399796000Y-44803000D03*
X401066000Y-44803000D03*
D19*
X399161000Y-42698000D03*
D18*
X398526000Y-44803000D03*
X397256000Y-44803000D03*
%TD*%
D17*
%TO.C,Q11*%
X411861000Y-44609000D03*
X413131000Y-44609000D03*
X414401000Y-44609000D03*
X415671000Y-44609000D03*
D18*
X414401000Y-39144000D03*
X411861000Y-39144000D03*
X413131000Y-39144000D03*
D19*
X413766000Y-41249000D03*
D18*
X415671000Y-39144000D03*
%TD*%
D17*
%TO.C,Q12*%
X422021000Y-39269000D03*
X420751000Y-39269000D03*
X419481000Y-39269000D03*
X418211000Y-39269000D03*
D18*
X420751000Y-44734000D03*
X422021000Y-44734000D03*
X418211000Y-44734000D03*
X419481000Y-44734000D03*
D19*
X420116000Y-42629000D03*
%TD*%
D17*
%TO.C,Q13*%
X432308000Y-44678000D03*
X433578000Y-44678000D03*
X434848000Y-44678000D03*
X436118000Y-44678000D03*
D18*
X432308000Y-39213000D03*
D19*
X434213000Y-41318000D03*
D18*
X433578000Y-39213000D03*
X436118000Y-39213000D03*
X434848000Y-39213000D03*
%TD*%
D17*
%TO.C,Q14*%
X442468000Y-39338000D03*
X441198000Y-39338000D03*
X439928000Y-39338000D03*
X438658000Y-39338000D03*
D18*
X442468000Y-44803000D03*
X438658000Y-44803000D03*
X439928000Y-44803000D03*
D19*
X440563000Y-42698000D03*
D18*
X441198000Y-44803000D03*
%TD*%
D17*
%TO.C,Q15*%
X452628000Y-44739000D03*
X453898000Y-44739000D03*
X455168000Y-44739000D03*
X456438000Y-44739000D03*
D18*
X452628000Y-39274000D03*
D19*
X454533000Y-41379000D03*
D18*
X453898000Y-39274000D03*
X455168000Y-39274000D03*
X456438000Y-39274000D03*
%TD*%
D17*
%TO.C,Q16*%
X462788000Y-39399000D03*
X461518000Y-39399000D03*
X460248000Y-39399000D03*
X458978000Y-39399000D03*
D18*
X461518000Y-44864000D03*
X462788000Y-44864000D03*
D19*
X460883000Y-42759000D03*
D18*
X458978000Y-44864000D03*
X460248000Y-44864000D03*
%TD*%
D20*
%TO.C,R1*%
X318636500Y-35632000D03*
X320286500Y-35632000D03*
%TD*%
%TO.C,R2*%
X338829500Y-35658000D03*
X340479500Y-35658000D03*
%TD*%
%TO.C,R3*%
X359093000Y-35700000D03*
X360743000Y-35700000D03*
%TD*%
%TO.C,R4*%
X379413000Y-35658000D03*
X381063000Y-35658000D03*
%TD*%
%TO.C,R5*%
X318636500Y-31568000D03*
X320286500Y-31568000D03*
%TD*%
%TO.C,R6*%
X338829500Y-31594000D03*
X340479500Y-31594000D03*
%TD*%
%TO.C,R7*%
X359093000Y-31636000D03*
X360743000Y-31636000D03*
%TD*%
%TO.C,R8*%
X379413000Y-31594000D03*
X381063000Y-31594000D03*
%TD*%
%TO.C,R9*%
X318636500Y-34108000D03*
X320286500Y-34108000D03*
%TD*%
%TO.C,R10*%
X338829500Y-34134000D03*
X340479500Y-34134000D03*
%TD*%
%TO.C,R11*%
X359093000Y-34176000D03*
X360743000Y-34176000D03*
%TD*%
%TO.C,R12*%
X379413000Y-34134000D03*
X381063000Y-34134000D03*
%TD*%
%TO.C,R21*%
X399606000Y-35658000D03*
X401256000Y-35658000D03*
%TD*%
%TO.C,R22*%
X420561000Y-35589000D03*
X422211000Y-35589000D03*
%TD*%
%TO.C,R23*%
X441008000Y-35658000D03*
X442658000Y-35658000D03*
%TD*%
%TO.C,R24*%
X461328000Y-35719000D03*
X462978000Y-35719000D03*
%TD*%
%TO.C,R25*%
X399606000Y-31594000D03*
X401256000Y-31594000D03*
%TD*%
%TO.C,R26*%
X420561000Y-31525000D03*
X422211000Y-31525000D03*
%TD*%
%TO.C,R27*%
X441008000Y-31594000D03*
X442658000Y-31594000D03*
%TD*%
%TO.C,R28*%
X461328000Y-31655000D03*
X462978000Y-31655000D03*
%TD*%
%TO.C,R29*%
X399606000Y-34134000D03*
X401256000Y-34134000D03*
%TD*%
%TO.C,R30*%
X420561000Y-34065000D03*
X422211000Y-34065000D03*
%TD*%
%TO.C,R31*%
X441008000Y-34134000D03*
X442658000Y-34134000D03*
%TD*%
%TO.C,R32*%
X461328000Y-34195000D03*
X462978000Y-34195000D03*
%TD*%
D21*
%TO.C,U?1*%
X315637000Y-35378000D03*
X315637000Y-34108000D03*
X315637000Y-32838000D03*
X315637000Y-31568000D03*
X315637000Y-30298000D03*
X315637000Y-29028000D03*
X315637000Y-27758000D03*
X310727000Y-27758000D03*
X310727000Y-29028000D03*
X310727000Y-30298000D03*
X310727000Y-31568000D03*
X310727000Y-32838000D03*
X310727000Y-34108000D03*
X310727000Y-35378000D03*
%TD*%
%TO.C,U?2*%
X335830000Y-35404000D03*
X335830000Y-34134000D03*
X335830000Y-32864000D03*
X335830000Y-31594000D03*
X335830000Y-30324000D03*
X335830000Y-29054000D03*
X335830000Y-27784000D03*
X330920000Y-27784000D03*
X330920000Y-29054000D03*
X330920000Y-30324000D03*
X330920000Y-31594000D03*
X330920000Y-32864000D03*
X330920000Y-34134000D03*
X330920000Y-35404000D03*
%TD*%
%TO.C,U?3*%
X356023000Y-35446000D03*
X356023000Y-34176000D03*
X356023000Y-32906000D03*
X356023000Y-31636000D03*
X356023000Y-30366000D03*
X356023000Y-29096000D03*
X356023000Y-27826000D03*
X351113000Y-27826000D03*
X351113000Y-29096000D03*
X351113000Y-30366000D03*
X351113000Y-31636000D03*
X351113000Y-32906000D03*
X351113000Y-34176000D03*
X351113000Y-35446000D03*
%TD*%
%TO.C,U?4*%
X376343000Y-35404000D03*
X376343000Y-34134000D03*
X376343000Y-32864000D03*
X376343000Y-31594000D03*
X376343000Y-30324000D03*
X376343000Y-29054000D03*
X376343000Y-27784000D03*
X371433000Y-27784000D03*
X371433000Y-29054000D03*
X371433000Y-30324000D03*
X371433000Y-31594000D03*
X371433000Y-32864000D03*
X371433000Y-34134000D03*
X371433000Y-35404000D03*
%TD*%
%TO.C,U?5*%
X396536000Y-35404000D03*
X396536000Y-34134000D03*
X396536000Y-32864000D03*
X396536000Y-31594000D03*
X396536000Y-30324000D03*
X396536000Y-29054000D03*
X396536000Y-27784000D03*
X391626000Y-27784000D03*
X391626000Y-29054000D03*
X391626000Y-30324000D03*
X391626000Y-31594000D03*
X391626000Y-32864000D03*
X391626000Y-34134000D03*
X391626000Y-35404000D03*
%TD*%
%TO.C,U?6*%
X417491000Y-35335000D03*
X417491000Y-34065000D03*
X417491000Y-32795000D03*
X417491000Y-31525000D03*
X417491000Y-30255000D03*
X417491000Y-28985000D03*
X417491000Y-27715000D03*
X412581000Y-27715000D03*
X412581000Y-28985000D03*
X412581000Y-30255000D03*
X412581000Y-31525000D03*
X412581000Y-32795000D03*
X412581000Y-34065000D03*
X412581000Y-35335000D03*
%TD*%
%TO.C,U?7*%
X437938000Y-35404000D03*
X437938000Y-34134000D03*
X437938000Y-32864000D03*
X437938000Y-31594000D03*
X437938000Y-30324000D03*
X437938000Y-29054000D03*
X437938000Y-27784000D03*
X433028000Y-27784000D03*
X433028000Y-29054000D03*
X433028000Y-30324000D03*
X433028000Y-31594000D03*
X433028000Y-32864000D03*
X433028000Y-34134000D03*
X433028000Y-35404000D03*
%TD*%
%TO.C,U?8*%
X458258000Y-35465000D03*
X458258000Y-34195000D03*
X458258000Y-32925000D03*
X458258000Y-31655000D03*
X458258000Y-30385000D03*
X458258000Y-29115000D03*
X458258000Y-27845000D03*
X453348000Y-27845000D03*
X453348000Y-29115000D03*
X453348000Y-30385000D03*
X453348000Y-31655000D03*
X453348000Y-32925000D03*
X453348000Y-34195000D03*
X453348000Y-35465000D03*
%TD*%
D22*
%TO.C,R44*%
X462597000Y-111506000D03*
X460947000Y-111506000D03*
%TD*%
D20*
%TO.C,R48*%
X444310000Y-110490000D03*
X445960000Y-110490000D03*
%TD*%
D23*
%TO.C,U67*%
X457342000Y-114925000D03*
D24*
X457342000Y-112385000D03*
X457342000Y-109845000D03*
X457342000Y-107305000D03*
X449722000Y-107305000D03*
X449722000Y-109845000D03*
X449722000Y-112385000D03*
X449722000Y-114925000D03*
%TD*%
D20*
%TO.C,R42*%
X444310000Y-112141000D03*
X445960000Y-112141000D03*
%TD*%
D13*
%TO.C,C81*%
X469646000Y-146050000D03*
X468096000Y-146050000D03*
%TD*%
D25*
%TO.C,U66*%
X442788000Y-82585000D03*
X442788000Y-83855000D03*
X442788000Y-85125000D03*
X442788000Y-86395000D03*
X447738000Y-86395000D03*
X447738000Y-85125000D03*
X447738000Y-83855000D03*
X447738000Y-82585000D03*
%TD*%
D26*
%TO.C,C68*%
X461379000Y-81442000D03*
X462929000Y-81442000D03*
%TD*%
D20*
%TO.C,R45*%
X444310000Y-105537000D03*
X445960000Y-105537000D03*
%TD*%
D27*
%TO.C,J7*%
X372110000Y-50927000D03*
%TD*%
D28*
%TO.C,J11*%
X470662000Y-62600000D03*
D29*
X470662000Y-57520000D03*
X470662000Y-52440000D03*
X470662000Y-47360000D03*
%TD*%
D30*
%TO.C,RV2*%
X446285000Y-95917000D03*
D31*
X445135000Y-99917000D03*
D30*
X443985000Y-95917000D03*
%TD*%
D20*
%TO.C,R50*%
X468059000Y-140208000D03*
X469709000Y-140208000D03*
%TD*%
D32*
%TO.C,U65*%
X459227000Y-79782000D03*
D33*
X456947000Y-86082000D03*
D32*
X454667000Y-79782000D03*
%TD*%
D29*
%TO.C,U68*%
X464021520Y-181620000D03*
X464021520Y-179080000D03*
X464021520Y-176540000D03*
X464021520Y-174000000D03*
X464021520Y-171460000D03*
X464021520Y-168920000D03*
X464021520Y-166380000D03*
X464021520Y-163840000D03*
X464021520Y-161300000D03*
X464021520Y-158760000D03*
X464021520Y-156220000D03*
X464021520Y-153680000D03*
X464021520Y-151140000D03*
X464021520Y-148600000D03*
X464021520Y-146060000D03*
X464021520Y-143520000D03*
X464021520Y-140980000D03*
X464021520Y-138440000D03*
X464021520Y-135900000D03*
X464021520Y-133360000D03*
X464021520Y-130820000D03*
X464021520Y-128280000D03*
X464021520Y-125740000D03*
D28*
X464021520Y-123200000D03*
X448781520Y-123200000D03*
D29*
X448781520Y-125740000D03*
X448781520Y-128280000D03*
X448781520Y-130820000D03*
X448781520Y-133360000D03*
X448781520Y-135900000D03*
X448781520Y-138440000D03*
X448781520Y-140980000D03*
X448781520Y-143520000D03*
X448781520Y-146060000D03*
X448781520Y-148600000D03*
X448781520Y-151140000D03*
X448781520Y-153680000D03*
X448781520Y-156220000D03*
X448781520Y-158760000D03*
X448781520Y-161300000D03*
X448781520Y-163840000D03*
X448781520Y-166380000D03*
X448781520Y-168920000D03*
X448781520Y-171460000D03*
X448781520Y-174000000D03*
X448781520Y-176540000D03*
X448781520Y-179080000D03*
X448781520Y-181620000D03*
%TD*%
D26*
%TO.C,C69*%
X447282000Y-88046000D03*
X448832000Y-88046000D03*
%TD*%
D27*
%TO.C,J5*%
X339090000Y-50800000D03*
%TD*%
D13*
%TO.C,C74*%
X462547000Y-116459000D03*
X460997000Y-116459000D03*
%TD*%
D28*
%TO.C,J13*%
X442468000Y-171445000D03*
D29*
X442468000Y-168905000D03*
X442468000Y-166365000D03*
X442468000Y-163825000D03*
X442468000Y-161285000D03*
X442468000Y-158745000D03*
X442468000Y-156205000D03*
X442468000Y-153665000D03*
X442468000Y-151125000D03*
X442468000Y-148585000D03*
%TD*%
D12*
%TO.C,C72*%
X452502000Y-79778000D03*
X452502000Y-81328000D03*
%TD*%
D30*
%TO.C,RV1*%
X452889000Y-95917000D03*
D31*
X451739000Y-99917000D03*
D30*
X450589000Y-95917000D03*
%TD*%
D20*
%TO.C,R52*%
X468059000Y-149352000D03*
X469709000Y-149352000D03*
%TD*%
D26*
%TO.C,C70*%
X461379000Y-79791000D03*
X462929000Y-79791000D03*
%TD*%
D27*
%TO.C,J8*%
X388366000Y-50927000D03*
%TD*%
D22*
%TO.C,R41*%
X462597000Y-114808000D03*
X460947000Y-114808000D03*
%TD*%
D12*
%TO.C,C73*%
X440564000Y-82572000D03*
X440564000Y-84122000D03*
%TD*%
D27*
%TO.C,J4*%
X322834000Y-50800000D03*
%TD*%
D26*
%TO.C,C78*%
X452742000Y-117475000D03*
X454292000Y-117475000D03*
%TD*%
D22*
%TO.C,R46*%
X445960000Y-108839000D03*
X444310000Y-108839000D03*
%TD*%
D13*
%TO.C,C83*%
X464071000Y-118618000D03*
X462521000Y-118618000D03*
%TD*%
D26*
%TO.C,C76*%
X460997000Y-109855000D03*
X462547000Y-109855000D03*
%TD*%
D27*
%TO.C,J3*%
X305816000Y-50546000D03*
%TD*%
D34*
%TO.C,C84*%
X458391780Y-57531000D03*
D35*
X450891780Y-57531000D03*
%TD*%
D13*
%TO.C,C80*%
X469646000Y-143510000D03*
X468096000Y-143510000D03*
%TD*%
D26*
%TO.C,C75*%
X444360000Y-113792000D03*
X445910000Y-113792000D03*
%TD*%
D20*
%TO.C,R43*%
X460947000Y-108204000D03*
X462597000Y-108204000D03*
%TD*%
D27*
%TO.C,J6*%
X355854000Y-50800000D03*
%TD*%
%TO.C,J9*%
X404876000Y-51181000D03*
%TD*%
D26*
%TO.C,C77*%
X444360000Y-107188000D03*
X445910000Y-107188000D03*
%TD*%
D22*
%TO.C,R51*%
X469709000Y-147701000D03*
X468059000Y-147701000D03*
%TD*%
D36*
%TO.C,J12*%
X461082000Y-98171000D03*
X468082000Y-98171000D03*
D37*
X467182000Y-101871000D03*
X469182000Y-94471000D03*
D38*
X459782000Y-94471000D03*
%TD*%
D26*
%TO.C,C79*%
X452742000Y-118999000D03*
X454292000Y-118999000D03*
%TD*%
D22*
%TO.C,R49*%
X469709000Y-141859000D03*
X468059000Y-141859000D03*
%TD*%
D27*
%TO.C,J10*%
X421132000Y-53086000D03*
%TD*%
D13*
%TO.C,C82*%
X464071000Y-120142000D03*
X462521000Y-120142000D03*
%TD*%
D39*
%TO.C,C67*%
X471868000Y-72390000D03*
X463868000Y-72390000D03*
%TD*%
D26*
%TO.C,C71*%
X447269000Y-89697000D03*
X448819000Y-89697000D03*
%TD*%
D22*
%TO.C,R47*%
X462597000Y-113157000D03*
X460947000Y-113157000D03*
%TD*%
M02*
